<svg width="150" height="42" viewBox="0 0 150 42" fill="none" xmlns="http://www.w3.org/2000/svg">
<path opacity="0.3" d="M21 42C32.598 42 42 32.598 42 21C42 9.40202 32.598 0 21 0C9.40202 0 0 9.40202 0 21C0 32.598 9.40202 42 21 42Z" fill="white"/>
<path d="M29.2802 9.97607H12.7196C11.1234 9.97607 9.77661 11.273 9.77661 12.9191V29.1305C9.77661 30.7267 11.0735 32.0236 12.7196 32.0236H29.2802C30.8764 32.0236 32.1733 30.7267 32.1733 29.1305V12.8692C32.1733 11.273 30.8764 9.97607 29.2802 9.97607ZM20.9999 22.8953C16.9096 22.8953 13.5177 19.7528 13.1685 15.6625C13.1187 14.7647 13.7671 14.0165 14.6151 13.9666C15.4631 13.9167 16.2612 14.5651 16.3111 15.4131C16.5106 17.9571 18.7054 19.9024 21.2992 19.7029C23.5937 19.5533 25.4393 17.7077 25.589 15.4131C25.6388 14.5153 26.3871 13.8668 27.2849 13.9167C27.7339 13.9666 28.1329 14.1661 28.4322 14.4654C28.7315 14.7647 28.8312 15.2136 28.8312 15.6127C28.4821 19.7528 25.0901 22.8953 20.9999 22.8953Z" fill="white"/>
<path d="M68.1623 10.3253V29.4298C68.2143 29.779 67.9544 30.0783 67.5904 30.1281C67.5384 30.1281 67.4864 30.1281 67.4344 30.1281H64.9388C64.5749 30.178 64.2629 29.9286 64.2109 29.5794C64.2109 29.5296 64.2109 29.4797 64.2109 29.4298V28.4322C63.1191 29.779 61.5073 30.5771 59.2716 30.5771C55.2162 30.5771 51.8367 27.235 51.8367 22.8455C51.8367 18.4559 55.2162 15.1139 59.2716 15.1139C61.5073 15.1139 63.1191 15.912 64.2109 17.2588V10.3253C64.1589 9.97613 64.4189 9.67684 64.7828 9.62696C64.8348 9.62696 64.8868 9.62696 64.9388 9.62696H67.4344C67.7984 9.57708 68.1104 9.82649 68.1623 10.1757C68.1623 10.2255 68.1623 10.2754 68.1623 10.3253ZM64.2109 22.7956C64.3149 20.5509 62.4432 18.6555 60.1035 18.6056C57.7638 18.5058 55.7881 20.3015 55.7361 22.5462C55.7361 22.646 55.7361 22.7457 55.7361 22.8455C55.6321 25.0901 57.5039 26.9856 59.8435 27.0355C62.1832 27.1353 64.1589 25.3395 64.2109 23.0949C64.2109 22.9951 64.2109 22.8954 64.2109 22.7956Z" fill="white"/>
<path d="M82.4603 15.4634C82.8243 15.4135 83.1362 15.6629 83.1882 16.0121C83.1882 16.062 83.1882 16.1118 83.1882 16.1617V29.4301C83.2402 29.7793 82.9803 30.0786 82.6163 30.1285C82.5643 30.1285 82.5123 30.1285 82.4603 30.1285H79.9647C79.6007 30.1784 79.2888 29.9289 79.2368 29.5798C79.2368 29.5299 79.2368 29.48 79.2368 29.4301V28.632C78.4049 29.8791 76.9491 30.5275 75.0774 30.5275C72.2178 30.5275 70.0861 28.4325 70.0861 24.8411V16.1617C70.0341 15.8126 70.2941 15.5133 70.658 15.4634C70.71 15.4634 70.762 15.4634 70.814 15.4634H73.3096C73.6736 15.4135 73.9855 15.6629 74.0375 16.0121C74.0375 16.062 74.0375 16.1118 74.0375 16.1617V24.5418C74.0375 26.2377 75.0774 27.0358 76.4812 27.0358C78.041 27.0358 79.2368 26.1879 79.2368 23.9432V16.1617C79.1848 15.8126 79.4448 15.5133 79.8087 15.4634C79.8607 15.4634 79.9127 15.4634 79.9647 15.4634H82.4603Z" fill="white"/>
<path d="M98.2661 30.1281H95.3545C94.9905 30.1281 94.6786 29.9785 94.4706 29.7291L89.4793 23.5438V29.4298C89.5313 29.779 89.2713 30.0783 88.9074 30.1281C88.8554 30.1281 88.8034 30.1281 88.7514 30.1281H86.2558C85.8918 30.178 85.5799 29.9286 85.5279 29.5795C85.5279 29.5296 85.5279 29.4797 85.5279 29.4298V10.3253C85.4759 9.97613 85.7358 9.67684 86.0998 9.62696C86.1518 9.62696 86.2038 9.62696 86.2558 9.62696H88.7514C89.1154 9.57708 89.4273 9.82649 89.4793 10.1757C89.4793 10.2255 89.4793 10.2754 89.4793 10.3253V21.9476L94.2106 15.912C94.4186 15.6127 94.7306 15.4631 95.0945 15.4631H98.0061C98.578 15.4631 98.786 15.8621 98.4221 16.311L93.2748 22.7457L98.682 29.33C99.098 29.779 98.89 30.1281 98.2661 30.1281Z" fill="white"/>
<path d="M106.377 15.0645C109.756 15.0645 112.616 17.0098 112.616 20.8008V29.4303C112.668 29.7794 112.408 30.0787 112.044 30.1286C111.992 30.1286 111.94 30.1286 111.888 30.1286H109.496C109.133 30.1785 108.821 29.9291 108.769 29.5799C108.769 29.53 108.769 29.4801 108.769 29.4303V28.8816C107.885 29.9291 106.585 30.5276 104.609 30.5276C101.906 30.5276 99.4619 28.9813 99.4619 25.9386C99.4619 22.8958 101.906 21.3495 104.609 21.3495C106.117 21.2497 107.625 21.7485 108.769 22.6464V21.1001C108.769 19.3542 107.833 18.6559 106.377 18.6559C105.233 18.6559 104.349 19.1048 104.089 19.9029C103.933 20.302 103.777 20.5015 103.361 20.5015H100.918C100.554 20.5514 100.242 20.302 100.19 19.9528C100.19 19.9029 100.19 19.8531 100.19 19.7533C100.606 16.7604 103.309 15.1143 106.377 15.0645ZM108.769 25.9386C108.769 24.7913 107.677 24.093 105.961 24.093C104.245 24.093 103.413 24.8412 103.413 25.9386C103.413 27.036 104.245 27.7842 105.961 27.7842C107.677 27.7842 108.769 26.9861 108.769 25.9386Z" fill="white"/>
<path d="M121.351 15.0645C124.73 15.0645 127.59 17.0098 127.59 20.8008V29.4303C127.642 29.7794 127.382 30.0787 127.018 30.1286C126.966 30.1286 126.914 30.1286 126.862 30.1286H124.47C124.107 30.1785 123.795 29.9291 123.743 29.5799C123.743 29.53 123.743 29.4801 123.743 29.4303V28.8816C122.859 29.9291 121.559 30.5276 119.583 30.5276C116.88 30.5276 114.436 28.9813 114.436 25.9386C114.436 22.8958 116.88 21.3495 119.583 21.3495C121.091 21.2497 122.599 21.7485 123.743 22.6464V21.1001C123.743 19.3542 122.807 18.6559 121.351 18.6559C120.207 18.6559 119.323 19.1048 119.063 19.9029C118.907 20.302 118.751 20.5015 118.335 20.5015H115.892C115.528 20.5514 115.216 20.302 115.164 19.9528C115.164 19.9029 115.164 19.8531 115.164 19.7533C115.58 16.7604 118.231 15.1143 121.351 15.0645ZM123.691 25.9386C123.691 24.7913 122.599 24.093 120.883 24.093C119.167 24.093 118.335 24.8412 118.335 25.9386C118.335 27.036 119.167 27.7842 120.883 27.7842C122.599 27.7842 123.691 26.9861 123.691 25.9386Z" fill="white"/>
<path d="M137.677 15.0645C140.536 15.0645 142.616 17.1595 142.616 20.7509V29.4302C142.668 29.7794 142.408 30.0787 142.044 30.1286C141.992 30.1286 141.94 30.1286 141.888 30.1286H139.392C139.028 30.1785 138.716 29.9291 138.664 29.5799C138.664 29.53 138.664 29.4801 138.664 29.4302V21.0502C138.664 19.3542 137.625 18.5561 136.221 18.5561C134.661 18.5561 133.465 19.4041 133.465 21.6488V29.4302C133.517 29.7794 133.257 30.0787 132.893 30.1286C132.841 30.1286 132.789 30.1286 132.737 30.1286H130.242C129.878 30.1785 129.566 29.9291 129.514 29.5799C129.514 29.53 129.514 29.4801 129.514 29.4302V16.1618C129.462 15.8127 129.722 15.5134 130.086 15.4635C130.138 15.4635 130.19 15.4635 130.242 15.4635H132.737C133.101 15.4136 133.413 15.663 133.465 16.0122C133.465 16.0621 133.465 16.112 133.465 16.1618V16.9599C134.349 15.7628 135.753 15.1143 137.677 15.0645Z" fill="white"/>
<path d="M146.203 8.18066C144.072 8.18066 142.408 9.82674 142.408 11.822C142.408 13.8172 144.124 15.4633 146.203 15.4633C148.283 15.4633 149.999 13.8172 149.999 11.822C150.051 9.77686 148.335 8.18066 146.203 8.18066ZM146.203 8.72936C147.971 8.72936 149.427 10.126 149.427 11.822C149.427 13.518 147.971 14.9146 146.203 14.9146C144.436 14.9146 142.98 13.518 142.98 11.822C142.98 10.126 144.436 8.72936 146.203 8.72936ZM145.059 10.126V13.518H145.631V12.2709H146.411L147.243 13.518H147.815L146.983 12.221C147.087 12.221 147.139 12.1712 147.243 12.1712C147.399 12.1213 147.555 12.0215 147.659 11.9218C147.763 11.822 147.815 11.7222 147.867 11.5726C147.919 11.4728 147.919 11.3232 147.919 11.2234C147.919 11.1237 147.919 10.974 147.867 10.8742C147.815 10.7246 147.763 10.6248 147.659 10.5251C147.555 10.4253 147.399 10.3256 147.243 10.2757C147.035 10.1759 146.775 10.126 146.567 10.1759L145.059 10.126ZM145.631 10.575H146.411C146.515 10.575 146.619 10.575 146.723 10.575C146.827 10.575 146.931 10.6248 147.035 10.6747C147.139 10.7246 147.191 10.7745 147.243 10.8244C147.295 10.9241 147.347 11.0239 147.347 11.1237C147.347 11.2234 147.347 11.3232 147.243 11.4229C147.191 11.5227 147.139 11.5726 147.035 11.6225L146.723 11.7222C146.619 11.7222 146.515 11.7721 146.411 11.7222H145.631V10.575Z" fill="white"/>
</svg>
